HIERARCHY
ROOT mixamorig:Hips
{
	OFFSET -0.000008 104.274872 1.554316
	CHANNELS 6 Xposition Yposition Zposition Xrotation Yrotation Zrotation
	JOINT mixamorig:Spine
	{
		OFFSET -0.000005 10.181595 0.131519
		CHANNELS 6 Xposition Yposition Zposition Xrotation Yrotation Zrotation
		JOINT mixamorig:Spine1
		{
			OFFSET -0.000000 9.893959 -1.470707
			CHANNELS 6 Xposition Yposition Zposition Xrotation Yrotation Zrotation
			JOINT mixamorig:Spine2
			{
				OFFSET -0.000000 9.220757 -1.370641
				CHANNELS 6 Xposition Yposition Zposition Xrotation Yrotation Zrotation
				JOINT mixamorig:Neck
				{
					OFFSET 0.000001 16.740417 -2.049036
					CHANNELS 6 Xposition Yposition Zposition Xrotation Yrotation Zrotation
					JOINT mixamorig:Head
					{
						OFFSET 0.000000 9.617874 1.685006
						CHANNELS 6 Xposition Yposition Zposition Xrotation Yrotation Zrotation
						JOINT mixamorig:HeadTop_End
						{
							OFFSET 0.000002 22.037354 7.501101
							CHANNELS 6 Xposition Yposition Zposition Xrotation Yrotation Zrotation
							End Site
							{
								OFFSET 0.000168 2310.654297 -282.823242
							}
						}
					}
				}
				JOINT mixamorig:RightShoulder
				{
					OFFSET -4.569970 11.014908 -2.160885
					CHANNELS 6 Xposition Yposition Zposition Xrotation Yrotation Zrotation
					JOINT mixamorig:RightArm
					{
						OFFSET -10.592851 -0.524811 -2.232101
						CHANNELS 6 Xposition Yposition Zposition Xrotation Yrotation Zrotation
						JOINT mixamorig:RightForeArm
						{
							OFFSET -27.841511 0.000031 -0.000004
							CHANNELS 6 Xposition Yposition Zposition Xrotation Yrotation Zrotation
							JOINT mixamorig:RightHand
							{
								OFFSET -28.328831 -0.000015 0.000015
								CHANNELS 6 Xposition Yposition Zposition Xrotation Yrotation Zrotation
								JOINT mixamorig:RightHandThumb1
								{
									OFFSET -2.464806 -1.573990 2.681852
									CHANNELS 6 Xposition Yposition Zposition Xrotation Yrotation Zrotation
									JOINT mixamorig:RightHandThumb2
									{
										OFFSET -3.215179 -1.872803 1.924282
										CHANNELS 6 Xposition Yposition Zposition Xrotation Yrotation Zrotation
										JOINT mixamorig:RightHandThumb3
										{
											OFFSET -2.654831 -1.527969 1.512609
											CHANNELS 6 Xposition Yposition Zposition Xrotation Yrotation Zrotation
											JOINT mixamorig:RightHandThumb4
											{
												OFFSET -2.018814 -1.152008 1.108052
												CHANNELS 6 Xposition Yposition Zposition Xrotation Yrotation Zrotation
												End Site
												{
													OFFSET -188.809540 -114.533607 132.431396
												}
											}
										}
									}
								}
								JOINT mixamorig:RightHandIndex1
								{
									OFFSET -9.108284 -0.517868 2.259835
									CHANNELS 6 Xposition Yposition Zposition Xrotation Yrotation Zrotation
									JOINT mixamorig:RightHandIndex2
									{
										OFFSET -3.699989 0.000000 0.001215
										CHANNELS 6 Xposition Yposition Zposition Xrotation Yrotation Zrotation
										JOINT mixamorig:RightHandIndex3
										{
											OFFSET -2.850006 0.000031 -0.000522
											CHANNELS 6 Xposition Yposition Zposition Xrotation Yrotation Zrotation
											JOINT mixamorig:RightHandIndex4
											{
												OFFSET -2.772186 -0.000015 -0.000020
												CHANNELS 6 Xposition Yposition Zposition Xrotation Yrotation Zrotation
												End Site
												{
													OFFSET -277.218445 0.000000 -0.050231
												}
											}
										}
									}
								}
								JOINT mixamorig:RightHandMiddle1
								{
									OFFSET -9.532516 -0.000031 -0.000023
									CHANNELS 6 Xposition Yposition Zposition Xrotation Yrotation Zrotation
									JOINT mixamorig:RightHandMiddle2
									{
										OFFSET -3.700005 -0.000015 0.003713
										CHANNELS 6 Xposition Yposition Zposition Xrotation Yrotation Zrotation
										JOINT mixamorig:RightHandMiddle3
										{
											OFFSET -2.949974 0.000015 -0.002054
											CHANNELS 6 Xposition Yposition Zposition Xrotation Yrotation Zrotation
											JOINT mixamorig:RightHandMiddle4
											{
												OFFSET -2.946640 0.000000 -0.000156
												CHANNELS 6 Xposition Yposition Zposition Xrotation Yrotation Zrotation
												End Site
												{
													OFFSET -294.664337 0.000000 -0.113670
												}
											}
										}
									}
								}
								JOINT mixamorig:RightHandRing1
								{
									OFFSET -9.103600 -0.043076 -1.865134
									CHANNELS 6 Xposition Yposition Zposition Xrotation Yrotation Zrotation
									JOINT mixamorig:RightHandRing2
									{
										OFFSET -3.379288 0.000000 -0.001055
										CHANNELS 6 Xposition Yposition Zposition Xrotation Yrotation Zrotation
										JOINT mixamorig:RightHandRing3
										{
											OFFSET -2.889687 -0.000015 0.000379
											CHANNELS 6 Xposition Yposition Zposition Xrotation Yrotation Zrotation
											JOINT mixamorig:RightHandRing4
											{
												OFFSET -2.638809 -0.000015 0.000941
												CHANNELS 6 Xposition Yposition Zposition Xrotation Yrotation Zrotation
												End Site
												{
													OFFSET -263.880371 0.000000 0.516020
												}
											}
										}
									}
								}
								JOINT mixamorig:RightHandPinky1
								{
									OFFSET -8.076683 -0.486710 -3.806280
									CHANNELS 6 Xposition Yposition Zposition Xrotation Yrotation Zrotation
									JOINT mixamorig:RightHandPinky2
									{
										OFFSET -3.600014 -0.000015 -0.003747
										CHANNELS 6 Xposition Yposition Zposition Xrotation Yrotation Zrotation
										JOINT mixamorig:RightHandPinky3
										{
											OFFSET -2.099983 0.000000 -0.005739
											CHANNELS 6 Xposition Yposition Zposition Xrotation Yrotation Zrotation
											JOINT mixamorig:RightHandPinky4
											{
												OFFSET -2.115768 -0.000031 -0.003680
												CHANNELS 6 Xposition Yposition Zposition Xrotation Yrotation Zrotation
												End Site
												{
													OFFSET -211.577087 0.000000 -0.350686
												}
											}
										}
									}
								}
							}
						}
					}
				}
				JOINT mixamorig:LeftShoulder
				{
					OFFSET 4.570447 11.014725 -2.160855
					CHANNELS 6 Xposition Yposition Zposition Xrotation Yrotation Zrotation
					JOINT mixamorig:LeftArm
					{
						OFFSET 10.592371 -0.524597 -2.232119
						CHANNELS 6 Xposition Yposition Zposition Xrotation Yrotation Zrotation
						JOINT mixamorig:LeftForeArm
						{
							OFFSET 27.841532 -0.000031 0.000026
							CHANNELS 6 Xposition Yposition Zposition Xrotation Yrotation Zrotation
							JOINT mixamorig:LeftHand
							{
								OFFSET 28.328846 -0.000061 0.000022
								CHANNELS 6 Xposition Yposition Zposition Xrotation Yrotation Zrotation
								JOINT mixamorig:LeftHandThumb1
								{
									OFFSET 2.466141 -1.576172 2.681732
									CHANNELS 6 Xposition Yposition Zposition Xrotation Yrotation Zrotation
									JOINT mixamorig:LeftHandThumb2
									{
										OFFSET 3.217812 -1.872070 1.916482
										CHANNELS 6 Xposition Yposition Zposition Xrotation Yrotation Zrotation
										JOINT mixamorig:LeftHandThumb3
										{
											OFFSET 2.656029 -1.528778 1.514513
											CHANNELS 6 Xposition Yposition Zposition Xrotation Yrotation Zrotation
											JOINT mixamorig:LeftHandThumb4
											{
												OFFSET 2.020889 -1.154053 1.115139
												CHANNELS 6 Xposition Yposition Zposition Xrotation Yrotation Zrotation
												End Site
												{
													OFFSET 190.885437 -115.081749 130.048782
												}
											}
										}
									}
								}
								JOINT mixamorig:LeftHandIndex1
								{
									OFFSET 9.109314 -0.518021 2.259871
									CHANNELS 6 Xposition Yposition Zposition Xrotation Yrotation Zrotation
									JOINT mixamorig:LeftHandIndex2
									{
										OFFSET 3.699989 0.000000 -0.000322
										CHANNELS 6 Xposition Yposition Zposition Xrotation Yrotation Zrotation
										JOINT mixamorig:LeftHandIndex3
										{
											OFFSET 2.850006 0.000000 0.000352
											CHANNELS 6 Xposition Yposition Zposition Xrotation Yrotation Zrotation
											JOINT mixamorig:LeftHandIndex4
											{
												OFFSET 2.774864 -0.000031 -0.000027
												CHANNELS 6 Xposition Yposition Zposition Xrotation Yrotation Zrotation
												End Site
												{
													OFFSET 277.486267 0.000000 -0.009857
												}
											}
										}
									}
								}
								JOINT mixamorig:LeftHandMiddle1
								{
									OFFSET 9.533394 0.000061 0.000044
									CHANNELS 6 Xposition Yposition Zposition Xrotation Yrotation Zrotation
									JOINT mixamorig:LeftHandMiddle2
									{
										OFFSET 3.699989 -0.000015 -0.000231
										CHANNELS 6 Xposition Yposition Zposition Xrotation Yrotation Zrotation
										JOINT mixamorig:LeftHandMiddle3
										{
											OFFSET 2.949997 -0.000015 -0.000059
											CHANNELS 6 Xposition Yposition Zposition Xrotation Yrotation Zrotation
											JOINT mixamorig:LeftHandMiddle4
											{
												OFFSET 2.952896 0.000031 0.000063
												CHANNELS 6 Xposition Yposition Zposition Xrotation Yrotation Zrotation
												End Site
												{
													OFFSET 295.289337 0.000000 0.022810
												}
											}
										}
									}
								}
								JOINT mixamorig:LeftHandRing1
								{
									OFFSET 9.104523 -0.042999 -1.865074
									CHANNELS 6 Xposition Yposition Zposition Xrotation Yrotation Zrotation
									JOINT mixamorig:LeftHandRing2
									{
										OFFSET 3.150009 -0.000031 0.000043
										CHANNELS 6 Xposition Yposition Zposition Xrotation Yrotation Zrotation
										JOINT mixamorig:LeftHandRing3
										{
											OFFSET 2.949982 -0.000015 0.000040
											CHANNELS 6 Xposition Yposition Zposition Xrotation Yrotation Zrotation
											JOINT mixamorig:LeftHandRing4
											{
												OFFSET 2.644348 0.000000 0.000057
												CHANNELS 6 Xposition Yposition Zposition Xrotation Yrotation Zrotation
												End Site
												{
													OFFSET 264.434631 0.000000 0.012105
												}
											}
										}
									}
								}
								JOINT mixamorig:LeftHandPinky1
								{
									OFFSET 8.077789 -0.486847 -3.806259
									CHANNELS 6 Xposition Yposition Zposition Xrotation Yrotation Zrotation
									JOINT mixamorig:LeftHandPinky2
									{
										OFFSET 3.599953 0.000031 0.014727
										CHANNELS 6 Xposition Yposition Zposition Xrotation Yrotation Zrotation
										JOINT mixamorig:LeftHandPinky3
										{
											OFFSET 2.100021 0.000015 0.007705
											CHANNELS 6 Xposition Yposition Zposition Xrotation Yrotation Zrotation
											JOINT mixamorig:LeftHandPinky4
											{
												OFFSET 2.125504 0.000031 0.007517
												CHANNELS 6 Xposition Yposition Zposition Xrotation Yrotation Zrotation
												End Site
												{
													OFFSET 212.550781 0.000000 0.625752
												}
											}
										}
									}
								}
							}
						}
					}
				}
			}
		}
	}
	JOINT mixamorig:RightUpLeg
	{
		OFFSET -8.207787 -6.751648 -1.599560
		CHANNELS 6 Xposition Yposition Zposition Xrotation Yrotation Zrotation
		JOINT mixamorig:RightLeg
		{
			OFFSET -0.000002 -44.370117 0.345942
			CHANNELS 6 Xposition Yposition Zposition Xrotation Yrotation Zrotation
			JOINT mixamorig:RightFoot
			{
				OFFSET 0.000003 -44.423679 -3.043532
				CHANNELS 6 Xposition Yposition Zposition Xrotation Yrotation Zrotation
				JOINT mixamorig:RightToeBase
				{
					OFFSET -0.000002 -8.728671 10.710558
					CHANNELS 6 Xposition Yposition Zposition Xrotation Yrotation Zrotation
					JOINT mixamorig:RightToe_End
					{
						OFFSET -0.000001 -0.000679 9.278119
						CHANNELS 6 Xposition Yposition Zposition Xrotation Yrotation Zrotation
						End Site
						{
							OFFSET 0.000000 -0.067690 927.812134
						}
					}
				}
			}
		}
	}
	JOINT mixamorig:LeftUpLeg
	{
		OFFSET 8.207793 -6.751686 -1.599556
		CHANNELS 6 Xposition Yposition Zposition Xrotation Yrotation Zrotation
		JOINT mixamorig:LeftLeg
		{
			OFFSET -0.000004 -44.370014 0.346954
			CHANNELS 6 Xposition Yposition Zposition Xrotation Yrotation Zrotation
			JOINT mixamorig:LeftFoot
			{
				OFFSET -0.000001 -44.423672 -3.044401
				CHANNELS 6 Xposition Yposition Zposition Xrotation Yrotation Zrotation
				JOINT mixamorig:LeftToeBase
				{
					OFFSET -0.000002 -8.728669 10.710558
					CHANNELS 6 Xposition Yposition Zposition Xrotation Yrotation Zrotation
					JOINT mixamorig:LeftToe_End
					{
						OFFSET -0.000003 -0.000679 9.278133
						CHANNELS 6 Xposition Yposition Zposition Xrotation Yrotation Zrotation
						End Site
						{
							OFFSET 0.000000 -0.068021 927.813477
						}
					}
				}
			}
		}
	}
}
MOTION
Frames: 3
Frame Time: 0.033333
0.000006 104.270477 1.554256 0.000010 0.000003 -0.000113 -0.000005 10.181587 0.131522 0.000001 -0.000003 0.000084 -0.000000 9.893967 -1.470711 0.000001 0.000000 -0.000000 -0.000000 9.220802 -1.370642 0.000000 -0.000000 -0.000000 0.000001 16.740433 -2.049030 0.000000 -0.000000 -0.000000 0.000000 9.617859 1.685014 0.000000 0.000000 0.000000 0.000002 22.037384 7.501101 0.000000 -0.000000 0.000000 -4.569968 11.014880 -2.160881 0.000008 0.000001 -0.000038 -10.592873 -0.524775 -2.231887 76.431770 32.009422 -25.452954 -27.841522 0.000016 0.000537 -55.849098 108.574627 72.799558 -28.328850 0.000020 0.000022 -0.000321 -0.000042 0.000006 -2.464409 -1.573777 2.682355 -45.613923 -164.773915 -3.824979 -3.215281 -1.872604 1.924662 155.418906 30.673864 -2.321767 -2.654977 -1.527892 1.513096 146.439160 26.526973 -42.647114 -2.018833 -1.152000 1.108073 -0.000008 0.000005 0.000002 -9.108380 -0.517552 2.260113 97.145350 16.819006 -19.073455 -3.700052 0.000315 0.001499 92.848806 15.070898 -15.804796 -2.850099 0.000364 -0.000280 90.885789 12.251622 -12.440077 -2.772163 -0.000017 -0.000021 -0.000000 0.000000 -0.000000 -9.532576 0.000280 0.000224 90.779423 14.350014 -14.686322 -3.700073 0.000311 0.003956 90.557175 12.330870 -12.354605 -2.950064 0.000329 -0.001819 88.660766 12.275257 -11.986732 -2.946641 0.000003 -0.000157 0.000000 0.000000 0.000000 -9.103689 -0.042752 -1.864886 88.790677 15.233193 -14.875672 -3.379317 0.000311 -0.000811 90.933949 9.757544 -9.934763 -2.889756 0.000352 0.000626 92.513683 7.500122 -7.883508 -2.638812 -0.000015 0.000938 -0.000003 0.000000 0.000001 -8.076737 -0.486369 -3.806041 83.992175 15.446603 -13.788126 -3.600036 0.000262 -0.003524 87.665096 8.434876 -7.758136 -2.100001 0.000311 -0.005509 87.388002 5.846987 -5.376478 -2.115788 -0.000042 -0.003679 -0.000001 0.000000 -0.000001 4.570446 11.014691 -2.160851 -0.000018 0.000010 -0.000021 10.592398 -0.524473 -2.232348 74.178559 -11.497360 8.704615 27.841824 0.000085 -0.000229 97.612405 -67.354005 74.565435 28.328838 -0.000029 0.000024 0.000020 -0.000089 -0.000000 2.466189 -1.576143 2.681878 -6.919473 157.246459 -69.749052 3.217810 -1.871783 1.916376 161.450345 -28.712476 13.585319 2.656108 -1.528674 1.514469 135.047047 -29.136504 52.049757 2.020888 -1.154067 1.115149 -0.000002 0.000002 -0.000003 9.109385 -0.517869 2.259753 80.919355 -16.659632 14.224966 3.700056 0.000142 -0.000470 78.541807 -16.765978 13.755529 2.850061 0.000171 0.000196 75.554590 -14.479139 11.244801 2.774882 -0.000001 -0.000027 -0.000001 -0.000002 -0.000001 9.533454 0.000192 -0.000090 80.018446 -15.556044 13.073563 3.700056 0.000161 -0.000368 83.295263 -15.132581 13.471712 2.950068 0.000149 -0.000183 84.337250 -17.249327 15.647484 2.952861 -0.000030 0.000062 0.000002 0.000002 0.000002 9.104589 -0.042871 -1.865238 77.391344 -15.149185 12.161819 3.150042 0.000181 -0.000090 84.323405 -14.397301 13.051172 2.950028 0.000140 -0.000063 87.058766 -15.129473 14.381952 2.644325 0.000043 0.000058 0.000000 -0.000001 -0.000000 8.077831 -0.486752 -3.806412 68.653571 -16.520062 11.733345 3.599992 0.000144 0.014581 71.886300 -15.313728 11.518127 2.100041 0.000148 0.007557 75.866340 -14.046281 11.357694 2.125495 0.000004 0.007507 -0.000001 -0.000001 0.000000 -8.207786 -6.751667 -1.599560 -0.077001 -0.000003 0.000080 -0.000002 -44.370110 0.345938 0.153719 -0.000000 -0.000000 0.000000 -44.423679 -3.043532 -0.076700 0.000000 -0.000002 -0.000006 -8.728667 10.710559 -0.000009 -0.000000 -0.000000 -0.000001 -0.000679 9.278123 0.000000 -0.000000 -0.000000 8.207792 -6.751710 -1.599556 -0.074518 -0.000003 0.000081 -0.000002 -44.370014 0.346960 0.148822 0.000002 0.000000 -0.000001 -44.423664 -3.044403 -0.074314 0.000000 -0.000002 -0.000004 -8.728671 10.710558 0.000007 -0.000000 -0.000000 0.000000 -0.000680 9.278137 -0.000000 0.000000 -0.000001 
0.000006 104.270477 1.554256 0.000010 0.000003 -0.000113 -0.000005 10.181587 0.131522 0.000001 -0.000003 0.000084 -0.000000 9.893967 -1.470711 0.000001 0.000000 -0.000000 -0.000000 9.220802 -1.370642 0.000000 -0.000000 -0.000000 0.000001 16.740433 -2.049030 0.000000 -0.000000 -0.000000 0.000000 9.617859 1.685014 0.000000 0.000000 0.000000 0.000002 22.037384 7.501101 0.000000 -0.000000 0.000000 -4.569968 11.014880 -2.160881 0.000008 0.000001 -0.000038 -10.592875 -0.524756 -2.231913 77.028264 26.860469 -21.520307 -27.841513 0.000011 0.000543 -52.944389 108.722459 69.565436 -28.328815 0.000004 0.000018 -0.000320 -0.000044 0.000008 -2.464437 -1.573744 2.682301 -51.367636 -169.664057 -19.776526 -3.215271 -1.872595 1.924657 153.738966 30.770135 -0.833507 -2.654970 -1.527898 1.513071 143.588075 27.605135 -37.037770 -2.018831 -1.151993 1.108070 -0.000001 -0.000000 0.000007 -9.108379 -0.517561 2.260113 96.375588 15.914409 -17.815109 -3.700052 0.000327 0.001497 92.641271 12.960129 -13.541696 -2.850080 0.000367 -0.000286 90.729918 10.435913 -10.568033 -2.772148 -0.000018 -0.000016 -0.000000 -0.000001 -0.000000 -9.532573 0.000269 0.000215 88.316047 14.242053 -13.969463 -3.700056 0.000331 0.003942 88.060058 10.546869 -10.107628 -2.950049 0.000333 -0.001827 89.817964 10.668684 -10.628035 -2.946625 0.000001 -0.000155 -0.000000 0.000000 0.000000 -9.103686 -0.042751 -1.864892 86.365201 15.635147 -14.642852 -3.379313 0.000326 -0.000839 88.189354 8.929271 -8.669190 -2.889739 0.000355 0.000610 94.024077 7.032352 -7.591930 -2.638810 -0.000000 0.000936 -0.000003 0.000001 0.000000 -8.076744 -0.486390 -3.806056 80.517876 16.053784 -13.492600 -3.600038 0.000279 -0.003549 84.120678 7.255683 -6.232738 -2.100005 0.000318 -0.005511 88.685710 4.503377 -4.190454 -2.115773 -0.000056 -0.003678 0.000001 -0.000000 -0.000001 4.570446 11.014691 -2.160851 -0.000018 0.000010 -0.000021 10.592376 -0.524498 -2.232334 73.268177 -3.312745 2.463716 27.841827 0.000061 -0.000207 99.213552 -70.154102 79.065573 28.328831 -0.000028 0.000024 0.000019 -0.000089 0.000000 2.466258 -1.576042 2.681820 4.874411 169.190001 -98.874911 3.217853 -1.871861 1.916413 163.783510 -21.783575 41.068374 2.656121 -1.528663 1.514488 139.849735 -27.365976 57.666345 2.020888 -1.154059 1.115141 0.000001 -0.000003 -0.000003 9.109381 -0.517873 2.259730 81.951840 -19.743350 17.178469 3.700050 0.000134 -0.000478 78.796996 -13.373561 11.014863 2.850055 0.000163 0.000206 77.172129 -10.542280 8.419195 2.774877 -0.000030 -0.000028 0.000001 -0.000001 0.000001 9.533469 0.000186 -0.000106 80.451070 -19.107266 16.196294 3.700032 0.000170 -0.000370 83.431976 -11.882010 10.597840 2.950036 0.000176 -0.000205 84.220747 -10.849504 9.814812 2.952880 -0.000016 0.000070 0.000000 0.000001 0.000000 9.104584 -0.042876 -1.865222 79.778911 -18.961254 15.893406 3.150055 0.000176 -0.000082 84.515224 -13.454837 12.236249 2.950022 0.000183 -0.000099 85.556322 -10.363057 9.594327 2.644316 0.000032 0.000053 0.000001 -0.000000 0.000001 8.077854 -0.486743 -3.806409 73.096302 -20.440123 15.684992 3.600023 0.000160 0.014585 71.940962 -17.402999 13.069651 2.100015 0.000156 0.007553 74.422602 -12.120633 9.588675 2.125523 -0.000017 0.007521 -0.000001 -0.000006 -0.000001 -8.207786 -6.751667 -1.599560 -0.077001 -0.000003 0.000080 -0.000002 -44.370110 0.345938 0.153719 -0.000000 -0.000000 0.000000 -44.423679 -3.043532 -0.076700 0.000000 -0.000002 -0.000006 -8.728667 10.710559 -0.000009 -0.000000 -0.000000 -0.000001 -0.000679 9.278123 0.000000 -0.000000 -0.000000 8.207792 -6.751710 -1.599556 -0.074518 -0.000003 0.000081 -0.000002 -44.370014 0.346960 0.148822 0.000002 0.000000 -0.000001 -44.423664 -3.044403 -0.074314 0.000000 -0.000002 -0.000004 -8.728671 10.710558 0.000007 -0.000000 -0.000000 0.000000 -0.000680 9.278137 -0.000000 0.000000 -0.000001 
0.000006 104.270477 1.554256 0.000010 0.000003 -0.000113 -0.000005 10.181587 0.131522 0.000001 -0.000003 0.000084 -0.000000 9.893967 -1.470711 0.000001 0.000000 -0.000000 -0.000000 9.220802 -1.370642 0.000000 -0.000000 -0.000000 0.000001 16.740433 -2.049030 0.000000 -0.000000 -0.000000 0.000000 9.617859 1.685014 0.000000 0.000000 0.000000 0.000002 22.037384 7.501101 0.000000 -0.000000 0.000000 -4.569968 11.014880 -2.160881 0.000008 0.000001 -0.000038 -10.592876 -0.524748 -2.231925 76.607286 26.387077 -20.980727 -27.841528 -0.000003 0.000550 -51.136356 107.052984 65.821488 -28.328815 0.000005 0.000026 -0.000323 -0.000045 0.000008 -2.464461 -1.573678 2.682281 -54.000278 -176.522305 -30.221774 -3.215282 -1.872610 1.924673 152.207146 28.904261 -12.792867 -2.654954 -1.527863 1.513066 141.181417 28.151168 -35.426265 -2.018826 -1.152012 1.108052 -0.000006 0.000000 0.000002 -9.108380 -0.517532 2.260116 99.912943 15.440061 -18.381371 -3.700065 0.000321 0.001516 96.026722 12.248159 -13.571457 -2.850068 0.000373 -0.000275 93.681741 9.751632 -10.394879 -2.772161 -0.000017 -0.000017 -0.000001 -0.000000 -0.000001 -9.532586 0.000268 0.000209 87.545745 15.430089 -14.926026 -3.700046 0.000331 0.003941 87.192016 11.355802 -10.726303 -2.950049 0.000333 -0.001839 88.553771 10.815296 -10.540371 -2.946618 0.000005 -0.000156 -0.000000 -0.000001 0.000001 -9.103708 -0.042746 -1.864909 85.247161 16.377928 -15.047424 -3.379323 0.000312 -0.000838 86.878053 10.107477 -9.590315 -2.889757 0.000348 0.000611 92.620063 7.730279 -8.139098 -2.638817 -0.000028 0.000945 -0.000000 0.000001 0.000000 -8.076752 -0.486386 -3.806048 79.884929 16.595230 -13.798930 -3.600041 0.000274 -0.003547 82.919323 8.522386 -7.217618 -2.100018 0.000296 -0.005499 86.674534 5.425353 -4.913242 -2.115757 -0.000027 -0.003678 -0.000002 -0.000003 -0.000005 4.570446 11.014691 -2.160851 -0.000018 0.000010 -0.000021 10.592389 -0.524482 -2.232348 72.597425 -9.507806 6.991333 27.841822 0.000074 -0.000217 101.116975 -72.170279 83.079764 28.328825 -0.000029 0.000023 0.000018 -0.000089 -0.000000 2.466261 -1.575935 2.681798 18.223004 185.554438 -131.780700 3.217872 -1.871914 1.916450 161.694716 -17.036152 60.663193 2.656113 -1.528687 1.514481 139.399981 -27.490318 58.744388 2.020887 -1.154071 1.115149 -0.000001 -0.000001 0.000004 9.109390 -0.517881 2.259740 84.190578 -21.575881 19.522477 3.700064 0.000152 -0.000455 82.058924 -14.407680 12.568448 2.850061 0.000175 0.000197 80.564151 -10.973163 9.306930 2.774896 -0.000031 -0.000024 0.000001 0.000003 -0.000001 9.533465 0.000185 -0.000101 82.033632 -20.115266 17.531912 3.700024 0.000183 -0.000374 86.052126 -11.114619 10.375728 2.950043 0.000180 -0.000200 86.025112 -10.024597 9.357949 2.952880 -0.000015 0.000063 -0.000002 -0.000002 0.000000 9.104589 -0.042873 -1.865231 81.949368 -20.092356 17.496073 3.150050 0.000186 -0.000091 86.528921 -13.294538 12.520709 2.950011 0.000190 -0.000074 86.255754 -9.902816 9.280373 2.644323 0.000013 0.000053 -0.000001 0.000001 0.000001 8.077847 -0.486743 -3.806392 73.838948 -21.072296 16.379922 3.600028 0.000146 0.014583 71.758767 -17.977611 13.449269 2.100042 0.000154 0.007551 72.791211 -12.587033 9.657782 2.125499 0.000001 0.007507 0.000000 0.000001 0.000002 -8.207786 -6.751667 -1.599560 -0.077001 -0.000003 0.000080 -0.000002 -44.370110 0.345938 0.153719 -0.000000 -0.000000 0.000000 -44.423679 -3.043532 -0.076700 0.000000 -0.000002 -0.000006 -8.728667 10.710559 -0.000009 -0.000000 -0.000000 -0.000001 -0.000679 9.278123 0.000000 -0.000000 -0.000000 8.207792 -6.751710 -1.599556 -0.074518 -0.000003 0.000081 -0.000002 -44.370014 0.346960 0.148822 0.000002 0.000000 -0.000001 -44.423664 -3.044403 -0.074314 0.000000 -0.000002 -0.000004 -8.728671 10.710558 0.000007 -0.000000 -0.000000 0.000000 -0.000680 9.278137 -0.000000 0.000000 -0.000001 
